<svg xmlns="http://www.w3.org/2000/svg" enable-background="new 0 0 64 64" viewBox="0 0 64 64"><path d="M46.1,50.4c-6.7,4.8-14.1,6.3-22,4.6c-0.5-0.1-1.1,0.2-1.2,0.8c-0.1,0.5,0.2,1.1,0.8,1.2c2.3,0.5,4.5,0.8,6.7,0.8c6,0,11.7-1.9,16.9-5.6c0.4-0.3,0.6-0.9,0.2-1.4C47.2,50.2,46.6,50.1,46.1,50.4z M24.1,32.3c0.7,0,3.8-2.1,9.4-0.8c0.5,0.1,1.1-0.2,1.2-0.7c0.1-0.5-0.2-1.1-0.7-1.2c-3.6-0.9-7.1-0.6-10.3,0.8c-0.5,0.2-0.7,0.8-0.5,1.3C23.3,32.1,23.7,32.3,24.1,32.3z M41.8,10.7C41.1,4.7,35.9,0,29.7,0C23,0,17.5,5.5,17.5,12.2S23,24.4,29.7,24.4c3.2,0,6.1-1.3,8.3-3.3c0.8,1.8,1.1,3.4,0.9,5.4c-0.1,0.7-3,2.4-2.8,7.8c-4.8-2-9-1.8-12.7,0.5c-1.8-2.7-4.6-4.3-8.2-4.7V27c0-0.6-0.4-1-1-1s-1,0.4-1,1v36c0,0.6,0.4,1,1,1s1-0.4,1-1v-3.4c3.3-1.7,5.8-3.9,7.5-6.8c8.4,2.4,16.2,1,23.2-4.3c1,0.1,2.8,0.1,3.8-1.4c0-0.1,0.1-0.2,0.1-0.3c0.7-3.3,1.1-6.6,1.1-9.8C50.8,27.8,47.8,19,41.8,10.7z M29.7,22.4c-5.6,0-10.2-4.6-10.2-10.2S24.1,2,29.7,2s10.2,4.6,10.2,10.2S35.3,22.4,29.7,22.4z M47.8,46.1c-0.3,0.3-1,0.5-2.1,0.3c-0.3,0-0.5,0-0.7,0.2c-6.8,5.3-14.2,6.6-22.5,4c-0.5-0.2-1,0.1-1.2,0.5c-1.2,2.5-3.3,4.6-6.1,6.2V32.1c3.2,0.4,5.5,1.9,7,4.6c0.1,0.2,0.4,0.4,0.7,0.5c0.3,0.1,0.6,0,0.8-0.2c3.8-2.8,8-2.9,13.1-0.2c0.3,0.2,0.7,0.1,1-0.1c0.3-0.2,0.5-0.6,0.4-0.9c-0.8-6.5,2.5-7,2.7-9.1c0.3-2.7-0.2-4.8-1.4-7.2c1.1-1.5,1.9-3.3,2.2-5.3C48.2,24.2,50.2,34.9,47.8,46.1z M29.7,6.8c-3,0-5.4,2.4-5.4,5.4s2.4,5.4,5.4,5.4s5.4-2.4,5.4-5.4C35.1,9.2,32.7,6.8,29.7,6.8z M29.7,15.5c-1.8,0-3.4-1.5-3.4-3.4s1.5-3.4,3.4-3.4s3.4,1.5,3.4,3.4C33.1,14,31.6,15.5,29.7,15.5z"/></svg>