<svg xmlns="http://www.w3.org/2000/svg" data-name="Layer 1" viewBox="0 0 168 168"><path fill="#0bceb2" d="M84 83.49976a2.0001 2.0001 0 0 0-2 2V98.80444c-3.16309 1.22412-12.34076 3.98633-18.6-2.14893A1.99987 1.99987 0 0 0 60.60021 99.512a17.71048 17.71048 0 0 0 12.7934 5.01172 28.67544 28.67544 0 0 0 10.60632-2.20923 28.671 28.671 0 0 0 10.60645 2.20923 17.71251 17.71251 0 0 0 12.7934-5.01172A1.99987 1.99987 0 0 0 104.6 96.65552C98.36907 102.76343 89.168 100.01636 86 98.8V85.49976A2.0001 2.0001 0 0 0 84 83.49976zM96.86467 108.70679a2.00889 2.00889 0 0 0-2.6665.9248 5.70366 5.70366 0 0 1-3.11371 2.65186c-1.65137.51074-3.65039.1167-5.939-1.17139a1.99526 1.99526 0 0 0-.981-.25732h-.3291a1.99526 1.99526 0 0 0-.981.25732c-2.28906 1.2876-4.28857 1.6792-5.939 1.17139a5.7059 5.7059 0 0 1-3.10638-2.63623 1.9999 1.9999 0 1 0-3.61816 1.70508 9.73071 9.73071 0 0 0 5.46826 4.729A10.9108 10.9108 0 0 0 84 115.032a12.54483 12.54483 0 0 0 5.59717 1.47168 8.97338 8.97338 0 0 0 2.74359-.42236 9.73071 9.73071 0 0 0 5.46826-4.729A1.99222 1.99222 0 0 0 96.86467 108.70679zM96.86467 118.70679a2.00889 2.00889 0 0 0-2.6665.9248 5.70366 5.70366 0 0 1-3.11371 2.65186c-1.65137.51123-3.65039.1167-5.939-1.17139a1.99526 1.99526 0 0 0-.981-.25732h-.3291a1.99526 1.99526 0 0 0-.981.25732c-2.28906 1.28711-4.28857 1.68018-5.939 1.17139a5.7059 5.7059 0 0 1-3.10638-2.63623 1.9999 1.9999 0 1 0-3.61816 1.70508 9.73071 9.73071 0 0 0 5.46826 4.729A10.9108 10.9108 0 0 0 84 125.032a12.54483 12.54483 0 0 0 5.59717 1.47168 8.97338 8.97338 0 0 0 2.74359-.42236 9.73071 9.73071 0 0 0 5.46826-4.729A1.99222 1.99222 0 0 0 96.86467 118.70679zM73.98113 135.33435c-1.4043 3.16479-2.07544 9.46777 3.67072 15.53992a1.99986 1.99986 0 1 0 2.90527-2.749c-5.73969-6.06592-2.84375-11.36084-2.7002-11.61377.00629-.01074.00922-.02246.01532-.03326A12.14551 12.14551 0 0 0 84 135.032a12.54483 12.54483 0 0 0 5.59717 1.47168c.17755 0 .34875-.02972.52417-.03967.008.01483.01184.03082.02026.04553.12793.22314 3.05853 5.53174-2.69873 11.61572a1.99986 1.99986 0 1 0 2.90527 2.749c5.74615-6.07214 5.075-12.37512 3.67072-15.53992a9.9896 9.9896 0 0 0 3.79016-3.98206 2 2 0 0 0-3.61084-1.7207 5.70366 5.70366 0 0 1-3.11371 2.65186c-1.65137.51172-3.65039.11621-5.939-1.17139a1.99526 1.99526 0 0 0-.981-.25732h-.3291a1.99526 1.99526 0 0 0-.981.25732c-2.28906 1.2876-4.28857 1.68066-5.939 1.17139a5.7059 5.7059 0 0 1-3.10638-2.63623 1.9999 1.9999 0 1 0-3.61816 1.70508A9.9896 9.9896 0 0 0 73.98113 135.33435z"/><path fill="#2d4356" d="M21.06566,83.988a11.64607,11.64607,0,0,1,4.17188,3.65381,1.99994,1.99994,0,0,0,3.63574-1.29541c-.00342-.04687-.26611-4.70508,7.86127-5.77051a2.00472,2.00472,0,0,0,1.626-1.31689c.20605-.57861,5.15918-14.14795,16.76019-11.87793A2.00542,2.00542,0,0,0,56.98839,66.76c.03845-.04291,3.28058-3.50745,10.1806-5.34161,1.40637,3.173,6.4823,13.01868,15.68878,14.0022a4.02169,4.02169,0,0,0,.79584.07916h.69275a4.02169,4.02169,0,0,0,.79584-.07916c9.20038-.98285,14.27576-10.81635,15.686-13.996,6.84229,1.8349,10.14978,5.29907,10.18335,5.33545a2.00035,2.00035,0,0,0,1.86768.62109c11.59125-2.27588,16.55414,11.29932,16.75922,11.875a1.9999,1.9999,0,0,0,1.627,1.31982c7.82806,1.02637,7.87885,5.31836,7.86127,5.77051a1.99987,1.99987,0,0,0,3.63574,1.29541,11.64607,11.64607,0,0,1,4.17188-3.65381,1.99987,1.99987,0,1,0-1.86914-3.53613,16.12558,16.12558,0,0,0-2.99951,2.03711c-1.19336-2.229-3.72656-4.71289-9.08978-5.69287-2.48291-5.95557-9.14746-14.9585-19.82123-13.51416A28.09447,28.09447,0,0,0,101.4923,57.4472V55.30048a13.7946,13.7946,0,0,0,1.36414-13.50336,17.682,17.682,0,0,0-4.5343-12.79193,16.63251,16.63251,0,0,0-12.25726-5.50543H81.93511a16.63251,16.63251,0,0,0-12.25726,5.50543,17.68231,17.68231,0,0,0-4.5343,12.79193,13.79449,13.79449,0,0,0,1.3642,13.50336V57.4472A28.09484,28.09484,0,0,0,54.84532,63.282C44.17693,61.83569,37.507,70.84058,35.0241,76.79614c-5.36322.98-7.89642,3.46387-9.08978,5.69287A16.12558,16.12558,0,0,0,22.9348,80.4519,1.99987,1.99987,0,0,0,21.06566,83.988ZM69.18328,42.19824c-.7616-7.9,5.26978-14.69849,12.75183-14.69849h4.12976c7.48206,0,13.51343,6.79852,12.75183,14.69849-.014.14545-.03009.28149-.04828.40723A9.90356,9.90356,0,0,1,97.4923,53.9826v5.05652S92.90434,71.18536,84,71.49371c.1145.004.23047.006.34637.006h-.69275c.11591,0,.23187-.00208.34637-.006-8.90436-.30835-13.49225-12.45459-13.49225-12.45459V53.9826a9.90344,9.90344,0,0,1-1.27612-11.37714C69.21337,42.47974,69.19731,42.34369,69.18328,42.19824Z"/><circle cx="2" cy="149.5" r="2" fill="#2d4356"/><path fill="#2d4356" d="M11 147.5H8a2 2 0 0 0 0 4h3a2 2 0 0 0 0-4zM160 147.5h-3a2 2 0 0 0 0 4h3a2 2 0 0 0 0-4z"/><circle cx="166" cy="149.5" r="2" fill="#2d4356"/><path fill="#0bceb2" d="M118.15387 155.5h-8.30774a2.00641 2.00641 0 0 0 0 4h8.30774a2.00641 2.00641 0 0 0 0-4zM58.15387 155.5H49.84613a2.00641 2.00641 0 0 0 0 4h8.30774a2.00641 2.00641 0 0 0 0-4zM104 155.5H64a2 2 0 0 0 0 4H79.94v2H72a2 2 0 0 0 0 4H97a2 2 0 0 0 0-4H88.06v-2H104a2 2 0 0 0 0-4z"/><path fill="#2d4356" d="M150.72131 147.5H111.8949a63.77387 63.77387 0 0 1-1.813-11.30444c1-1.44287 2.18164-4.71533-.06348-11.16064-.05078-.855-.12549-5.01221 2.26611-13.75293 1.45166-5.30615 2.44873-8.22314 3.24951-10.56689.34326-1.00488.65479-1.91553.94678-2.86035 3.48724 3.936 10.15131 10.02295 17.74255 9.6626 1.76416 1.17432 6.89795 4.25391 11.89014 3.96533a1.99982 1.99982 0 1 0-.22754-3.99316c-4.57812.26514-9.86426-3.58887-9.915-3.62646a2.00367 2.00367 0 0 0-1.395-.38135c-8.92181.91895-17.29333-10.99854-17.37732-11.11914a2.00034 2.00034 0 0 0-3.6001.71533 50.07185 50.07185 0 0 1-1.84961 6.34375c-.81885 2.39648-1.83789 5.37842-3.32275 10.80469-2.916 10.65625-2.42383 15.04932-2.3584 15.51514a2.02955 2.02955 0 0 0 .09717.394c1.80786 5.05786.986 7.15106.65735 7.71326-1.51892.78442-6.65283 4.05933-10.22632 13.65125H71.40405c-3.57349-9.59192-8.7074-12.86682-10.22632-13.65125-.32867-.56219-1.15051-2.6554.65735-7.71326a2.02956 2.02956 0 0 0 .09717-.394c.06543-.46582.55756-4.85889-2.3584-15.51514C58.089 104.8 57.06995 101.81812 56.2511 99.42163a50.07185 50.07185 0 0 1-1.84961-6.34375 2.00034 2.00034 0 0 0-3.6001-.71533c-.0835.12012-8.4433 12.04639-17.37732 11.11914a1.99873 1.99873 0 0 0-1.39307.37988c-.05322.03857-5.34033 3.88281-9.917 3.62793a1.99982 1.99982 0 1 0-.22754 3.99316c5.00244.2876 10.12549-2.79053 11.89014-3.96533 7.6015.35791 14.25531-5.72705 17.74255-9.6626.292.94482.60352 1.85547.94678 2.86035.80078 2.34375 1.79785 5.26074 3.24951 10.56689 2.40234 8.77832 2.31641 12.93408 2.26758 13.74951-2.24707 6.44678-1.06494 9.7207-.06494 11.16406A63.77388 63.77388 0 0 1 56.1051 147.5H17.27869a2.017 2.017 0 1 0 0 4H150.72131a2.017 2.017 0 1 0 0-4zM61.683 139.14673A24.1628 24.1628 0 0 1 67.11084 147.5H60.22412A70.57573 70.57573 0 0 0 61.683 139.14673zM100.89 147.5a24.18767 24.18767 0 0 1 5.42834-8.34045A70.6131 70.6131 0 0 0 107.77588 147.5zM117.30471 37.5a3 3 0 1 0-3-3A3.00344 3.00344 0 0 0 117.30471 37.5zm0-4.5a1.5 1.5 0 1 1-1.5 1.5A1.50148 1.50148 0 0 1 117.30471 33zM143.30471 55.5a2 2 0 1 0 2 2A2.00229 2.00229 0 0 0 143.30471 55.5zm0 3a1 1 0 1 1 1-1A1.001 1.001 0 0 1 143.30471 58.5zM38.30471 57.5a2 2 0 1 0 2 2A2.00229 2.00229 0 0 0 38.30471 57.5zm0 3a1 1 0 1 1 1-1A1.001 1.001 0 0 1 38.30471 60.5zM123.30471 2.5a2 2 0 1 0 2 2A2.00229 2.00229 0 0 0 123.30471 2.5zm0 3a1 1 0 1 1 1-1A1.001 1.001 0 0 1 123.30471 5.5zM22.30471 7.5a2 2 0 1 0-2 2A2.00229 2.00229 0 0 0 22.30471 7.5zm-3 0a1 1 0 1 1 1 1A1.001 1.001 0 0 1 19.30471 7.5z"/><polygon fill="#0bceb2" points="4.888 41.511 6.375 39.556 5.436 39.024 4.481 41.214 4.45 41.214 3.48 39.039 2.525 39.587 3.996 41.496 3.996 41.527 1.695 41.23 1.695 42.294 4.011 41.997 4.011 42.028 2.525 43.936 3.416 44.5 4.434 42.294 4.465 42.294 5.404 44.484 6.39 43.921 4.888 42.043 4.888 42.012 7.25 42.294 7.25 41.23 4.888 41.542 4.888 41.511"/><polygon fill="#0bceb2" points="52.081 33.567 51.225 34.666 51.739 34.99 52.325 33.72 52.342 33.72 52.883 34.981 53.451 34.657 52.586 33.575 52.586 33.557 53.946 33.72 53.946 33.107 52.586 33.287 52.586 33.269 53.442 32.143 52.902 31.837 52.352 33.098 52.334 33.098 51.775 31.845 51.225 32.161 52.072 33.26 52.072 33.278 50.747 33.107 50.747 33.72 52.081 33.549 52.081 33.567"/><polygon fill="#0bceb2" points="164.305 15.213 164.305 14.17 161.988 14.477 161.988 14.446 163.446 12.528 162.525 12.006 161.589 14.154 161.558 14.154 160.607 12.021 159.67 12.559 161.113 14.431 161.113 14.462 158.856 14.17 158.856 15.213 161.128 14.922 161.128 14.953 159.67 16.825 160.545 17.378 161.543 15.213 161.573 15.213 162.494 17.362 163.461 16.81 161.988 14.968 161.988 14.937 164.305 15.213"/><polygon fill="#0bceb2" points="67.748 7.086 69.006 5.431 68.211 4.981 67.404 6.834 67.377 6.834 66.557 4.994 65.748 5.458 66.993 7.073 66.993 7.099 65.047 6.848 65.047 7.748 67.006 7.496 67.006 7.523 65.748 9.138 66.503 9.615 67.364 7.748 67.39 7.748 68.185 9.601 69.019 9.125 67.748 7.536 67.748 7.509 69.746 7.748 69.746 6.848 67.748 7.112 67.748 7.086"/></svg>