<svg xmlns="http://www.w3.org/2000/svg" data-name="Layer 1" viewBox="0 0 128 128"><path d="M117.2569,60.70947a1.88769,1.88769,0,0,0-.11815-.19534l-9.33226-13.69935a.22039.22039,0,0,1-.02734-.1973c5.03085-14.29808-7.8939-33.06119-19.00141-39.697C75.95746-.73788,57.28512-2.16974,41.20828,3.274c-13.62391,4.613-23.629,13.42929-28.17353,24.82458C7.43168,42.14756,9.69419,58.94162,18.9376,71.928c12.33886,17.33077,15.03493,34.79339,8.24153,53.38509a2.0003,2.0003,0,1,0,3.75751,1.37326c7.27872-19.923,4.41957-38.59377-8.74149-57.079C13.732,57.71732,11.64521,42.38,16.74929,29.58119,20.85346,19.29154,29.99433,11.29471,42.4904,7.0636c15.01638-5.08476,32.38023-3.79257,44.2367,3.292,9.72774,5.81094,21.58031,22.70805,17.27987,34.93208a4.263,4.263,0,0,0,.47262,3.74715L113.74448,62.636a2.553,2.553,0,0,1,.11327,1.868c-.30465.64461-1.25571,1.16031-2.67936,1.45332a3.44477,3.44477,0,0,0-2.68447,4.26825l1.42371,4.31511-2.48808.96011a2.69819,2.69819,0,0,0-1.01261,3.95275,1.96043,1.96043,0,0,0,.2783.32524l2.09944,1.97491-.54195,1.52367a15.02216,15.02216,0,0,0-.32322,6.98837l.40915,2.01789a3.28917,3.28917,0,0,1-1.44422,3.40482c-1.33974.86439-4.05143,1.85868-9.35179,1.7532-9.08326-.21488-16.11883,3.92247-19.39494,11.30836-1.71471,3.86582-2.52812,9.67921-2.4168,17.279A2.00018,2.00018,0,0,0,77.72978,128H77.76a2.001,2.001,0,0,0,1.97055-2.02961c-.10155-6.919.61519-12.31242,2.07308-15.5971,3.54757-7.99438,11.337-9.01212,15.65109-8.933,5.07674.127,8.97486-.69151,11.60746-2.39a7.31859,7.31859,0,0,0,3.13572-4.51074,11.71666,11.71666,0,0,0-.34493-5.04937c-.49156-2.55647.1463-4.81.99212-7.19049a2.83158,2.83158,0,0,0-.60444-2.79633l-1.18448-1.11443,1.38078-.53232a2.86647,2.86647,0,0,0,1.702-3.2876l-1.59069-4.821c2.451-.61533,4.10612-1.802,4.92539-3.53276A6.54844,6.54844,0,0,0,117.2569,60.70947Z"/><path d="M24.00555 109.99726a2.00017 2.00017 0 0 0-1.99984-2.0003H16.00619a2.0003 2.0003 0 0 0 0 4.00061h5.99952A2.00017 2.00017 0 0 0 24.00555 109.99726zM20.4199 96.58115a1.99986 1.99986 0 1 0-2.8279 2.82856l3.99968 4.00061a2.027 2.027 0 0 0 2.8279 0 1.9999 1.9999 0 0 0 0-2.82856zM21.59168 116.5842L17.592 120.58481a1.99986 1.99986 0 1 0 2.8279 2.82856l3.99968-4.00061a1.99986 1.99986 0 0 0-2.8279-2.82856zM99.82372 80.08254a2.02005 2.02005 0 0 0 2.16682-1.81668 1.99915 1.99915 0 0 0-1.81333-2.1683c-.9345-.08107-23.11241-1.88408-38.40221 12.28215-9.33812 8.65269-13.96959 21.31868-13.76453 37.64539A1.9997 1.9997 0 0 0 50.00933 128h.02637a2.00035 2.00035 0 0 0 1.97445-2.0257c-.19041-15.13317 4.00163-26.78729 12.45994-34.63809C78.43187 78.37623 99.60987 80.065 99.82372 80.08254z"/></svg>