<svg xmlns="http://www.w3.org/2000/svg" enable-background="new 0 0 64 64" viewBox="0 0 64 64"><path d="M17 12h5.547c2.445 4.176 7.116 7.62 8.89 8.827C31.607 20.942 31.804 21 32 21s.393-.058.562-.173c1.774-1.206 6.445-4.65 8.89-8.827H47v-2h-4.591C42.773 9.02 43 8.018 43 7.005c0-3-1.715-5.243-4.477-5.854C36.388.678 33.697 1.342 32 3.395c-1.698-2.052-4.387-2.716-6.523-2.244C22.715 1.762 21 4.005 21 7.005 21 8.018 21.227 9.02 21.591 10H17V12zM32 18.781c-1.563-1.114-4.947-3.728-7.091-6.781H28c.265 0 .52-.105.707-.293l.928-.928 1.437 3.592c.138.345.456.584.825.623C31.931 14.998 31.966 15 32 15c.332 0 .646-.166.832-.445L34.535 12h4.556C36.947 15.053 33.563 17.666 32 18.781zM23 7.005c0-2.04 1.087-3.499 2.909-3.901.302-.067.62-.101.945-.101 1.606 0 3.381.834 4.239 2.677C31.257 6.032 31.611 6.258 32 6.258s.743-.226.907-.578c1.031-2.216 3.387-2.975 5.184-2.576C39.913 3.506 41 4.965 41 7.005c0 .999-.283 2.007-.739 2.995H34c-.334 0-.646.167-.832.445l-.945 1.418-1.294-3.235c-.125-.312-.398-.541-.728-.608-.329-.065-.67.035-.908.272L27.586 10h-3.847C23.283 9.012 23 8.004 23 7.005zM12.029 39.762c-.067.272-.016.56.139.792l2 3c.279.42.828.565 1.279.34L26 38.618v6.294l-2.985 16.914c-.051.291.029.59.219.816C23.424 62.869 23.705 63 24 63h4c.446 0 .839-.296.961-.725L32 51.64l3.039 10.635C35.161 62.704 35.554 63 36 63h4c.295 0 .576-.131.766-.357.19-.226.27-.525.219-.816L38 44.913V38h3.458c.979 0 1.897-.479 2.458-1.28l6.403-9.147c.154-.22.213-.494.164-.758s-.204-.498-.428-.647l-3-2c-.441-.294-1.036-.193-1.354.232L40 32h-4.026C36.609 31.162 37 30.13 37 29c0-2.757-2.243-5-5-5s-5 2.243-5 5c0 1.13.391 2.162 1.026 3h-1.262c-.84 0-1.673.214-2.408.618l-11.837 6.505C12.273 39.258 12.095 39.49 12.029 39.762zM29 29c0-1.654 1.346-3 3-3s3 1.346 3 3-1.346 3-3 3S29 30.654 29 29zM25.319 34.371C25.76 34.128 26.26 34 26.764 34H40c.626 0 1.225-.299 1.6-.8l5.133-6.843 1.362.908-5.816 8.309C42.091 35.841 41.785 36 41.458 36H37c-.552 0-1 .448-1 1v8c0 .058.005.116.015.174L38.808 61h-2.054l-3.793-13.275C32.839 47.296 32.446 47 32 47s-.839.296-.961.725L27.246 61h-2.054l2.793-15.826C27.995 45.116 28 45.058 28 45v-8c0-.347-.18-.668-.474-.851-.295-.182-.663-.198-.973-.044l-11.21 5.605-.906-1.359L25.319 34.371zM48.751 53.661c2.955-3.359 5.045-7.192 6.212-11.393.653-2.35 1.002-4.791 1.037-7.253l-2-.028c-.032 2.292-.356 4.562-.963 6.746-1.086 3.908-3.034 7.477-5.788 10.607L48.751 53.661z"/><path d="M43.247 49.343l1.507 1.314c.578-.662 1.128-1.362 1.636-2.08l-1.633-1.155C44.288 48.085 43.78 48.731 43.247 49.343zM48.042 40.712c-.5 1.66-1.193 3.272-2.062 4.792l1.736.992c.944-1.65 1.698-3.403 2.241-5.208.608-2.021.958-4.123 1.042-6.249l-1.998-.078C48.924 36.918 48.602 38.853 48.042 40.712z"/></svg>