<svg xmlns="http://www.w3.org/2000/svg" viewBox="0 0 48 48"><path d="M39.39 16.16a1.56 1.56 0 0 1-1.25 0 3.07 3.07 0 0 0-3.44.86 4.39 4.39 0 0 0 .24 5.27c1 1.29.7-.07 2 21.73a1 1 0 0 0 2-.12L37.72 23.56a5.72 5.72 0 0 0-1.21-2.48 2.44 2.44 0 0 1-.27-2.75c.39-.47 1-.3 1.41-.19A3.41 3.41 0 0 0 40 18.07c2-.61 2.5.78 1.66 2.26-1.29 2.26-.93 2.3.25 23.72a1 1 0 0 0 2-.1c-1.19-21.52-1.43-21-.51-22.64C45.12 18.24 43.09 15 39.39 16.16zM34.6 10c-.05-2.09-1.87-3.16-3.94-3-2.34.23-1.85 1.09-3.8 1.63L1 9.17a1 1 0 0 0 0 2l26-.52a5.7 5.7 0 0 0 2.53-1.13 2.45 2.45 0 0 1 2.76-.18c.46.41.26 1 .14 1.41a3.39 3.39 0 0 0 0 2.33c.55 2-.86 2.48-2.31 1.6a7.19 7.19 0 0 0-3.73-1L.94 15.16a1 1 0 0 0 .12 2c27.6-1.58 26.33-1.82 28-.78 2.52 1.54 5.49.46 5.49-2.55a17.14 17.14 0 0 0-.34-1.93A12.35 12.35 0 0 0 34.6 10z"/><path d="M37,3H1A1,1,0,0,0,1,5H37a9,9,0,0,1,9,9V44a1,1,0,0,0,2,0V14A11,11,0,0,0,37,3Z"/><path d="M32 20a1 1 0 0 0-1.32-.95C23.19 21.56 20.4 21.17 1 22A1 1 0 0 0 1 24c18.85-.77 22.27-.51 29-2.58a149.11 149.11 0 0 0 1.85 22.78A1 1 0 0 0 33 45C35.32 44.62 32 41.49 32 20zM38 14.8c1.06.54 4.53-.41 5.17-1.62C44.35 11 40.3 7.06 37.66 7.89 35.9 7.89 35.88 13.67 38 14.8zm.42-5a4.35 4.35 0 0 1 3 2.44 6.71 6.71 0 0 1-2.51.76A5.07 5.07 0 0 1 38.46 9.77z"/></svg>